<svg width="93" height="84" viewBox="0 0 93 84" fill="none" xmlns="http://www.w3.org/2000/svg">
<path d="M31.7019 71.154C32.2546 71.6516 32.8805 72.0612 33.5576 72.3686C33.7442 72.4589 33.9384 72.5447 34.1401 72.626C35.8163 73.3118 37.623 73.6201 39.4319 73.529H39.5222C40.3318 73.4854 41.1195 73.2502 41.8204 72.8427C42.3187 72.5402 42.6943 72.0718 42.8815 71.5198C42.9567 71.3042 43.0567 71.0982 43.1795 70.9057C43.5635 70.3353 44.029 69.8241 44.5611 69.3886C45.7306 68.3636 47.3922 67.2439 49.266 65.8983C54.3998 62.223 61.141 56.868 63.9223 47.1287C66.5863 37.8093 64.9699 25.3112 53.3342 21.4913L53.0633 21.4056C41.5224 17.7573 30.1486 23.311 26.5275 36.1341C23.0643 48.3929 29.8551 59.0217 30.9614 65.5145C31.1978 66.5864 31.1652 67.7002 30.8666 68.7565L30.8394 68.8513C30.6092 69.6685 30.9749 70.4632 31.7019 71.154Z" fill="#FFAE00"/>
<path opacity="0.75" d="M33.1333 74.5495C33.1333 74.5495 39.6577 47.8196 35.2554 45.6523C30.8531 43.485 30.257 50.023 33.21 51.8742C37.1834 54.3711 44.0916 55.2109 45.2159 50.5196C46.0919 46.8669 41.5089 45.878 40.2853 49.6572C39.459 52.2219 41.0032 54.5788 44.3219 55.369C49.9388 56.701 53.8851 54.9175 52.1377 50.8538C51.1805 48.6278 48.223 49.5669 47.5954 52.4025C46.9678 55.238 38.8088 76.1886 38.8088 76.1886" stroke="white" stroke-width="3.06" stroke-linecap="round" stroke-linejoin="round"/>
<path d="M33.6074 82.8756L33.1559 82.7401C31.4054 82.2391 29.9256 81.0635 29.0416 79.4717C28.1577 77.88 27.942 76.0023 28.4421 74.2516C28.4421 74.2516 29.8869 65.8713 30.9345 65.5146C31.982 65.1579 44.3446 68.7204 44.6155 69.4248C44.8864 70.1292 42.1186 78.1572 42.1186 78.1572C41.8711 79.0268 41.4544 79.8391 40.8923 80.5473C40.3301 81.2555 39.6337 81.8457 38.8429 82.2841C38.0522 82.7225 37.1826 83.0004 36.2842 83.1019C35.3857 83.2034 34.4761 83.1265 33.6074 82.8756Z" fill="#3B3B4C"/>
<path d="M28.8479 69.7058L28.8798 69.5143C28.9678 68.9854 29.4679 68.6281 29.9968 68.7161L43.8039 71.0142C44.3328 71.1023 44.6902 71.6024 44.6021 72.1312L44.5703 72.3228C44.4822 72.8516 43.9821 73.209 43.4533 73.121L29.6461 70.8228C29.1172 70.7348 28.7599 70.2347 28.8479 69.7058Z" fill="#AAAAAF"/>
<path d="M28.0507 72.7803L28.0825 72.5888C28.1704 72.0599 28.6703 71.7023 29.1992 71.7902L43.0072 74.0835C43.5361 74.1713 43.8936 74.6713 43.8058 75.2002L43.774 75.3917C43.6861 75.9206 43.1862 76.2782 42.6573 76.1903L28.8493 73.897C28.3204 73.8091 27.9629 73.3092 28.0507 72.7803Z" fill="#AAAAAF"/>
<path d="M27.3169 75.8776L27.3488 75.686C27.4368 75.1571 27.9369 74.7998 28.4658 74.8878L42.2729 77.1859C42.8018 77.274 43.1592 77.7741 43.0711 78.3029L43.0393 78.4945C42.9512 79.0233 42.4512 79.3807 41.9223 79.2926L28.1151 76.9945C27.5863 76.9065 27.2289 76.4064 27.3169 75.8776Z" fill="#AAAAAF"/>
<g opacity="0.65">
<path opacity="0.65" d="M41.2832 29.5917C42.1186 29.4021 42.7281 29.1854 43.279 29.0499C43.7188 28.9229 44.176 28.8665 44.6335 28.8828C44.8888 28.9048 45.1459 28.8762 45.3901 28.7988C45.6344 28.7214 45.8609 28.5966 46.0569 28.4316C46.253 28.2667 46.4145 28.0647 46.5325 27.8372C46.6504 27.6098 46.7225 27.3614 46.7444 27.1061C46.7664 26.8509 46.7378 26.5938 46.6604 26.3495C46.5829 26.1053 46.4582 25.8787 46.2932 25.6827C46.1282 25.4867 45.9262 25.3251 45.6988 25.2071C45.4714 25.0892 45.2229 25.0172 44.9677 24.9953H44.918C44.0406 24.9504 43.1618 25.0511 42.3172 25.2933C41.5813 25.4874 40.9266 25.7177 40.466 25.8215H40.4389C39.9508 25.9449 39.5301 26.2538 39.2663 26.6826C39.0026 27.1114 38.9166 27.6262 39.0266 28.1175C39.1366 28.6087 39.434 29.0377 39.8554 29.313C40.2769 29.5883 40.7892 29.6883 41.2832 29.5917Z" fill="white"/>
<path opacity="0.65" d="M33.2598 40.1346C33.4568 38.528 33.9032 36.962 34.5828 35.493C35.2872 34.0538 36.2376 32.7489 37.3912 31.637C37.7505 31.2855 37.9554 30.8057 37.9609 30.3032C37.9664 29.8006 37.7721 29.3164 37.4206 28.9572C37.0692 28.5979 36.5893 28.393 36.0868 28.3875C35.5842 28.382 35.1001 28.5764 34.7408 28.9278C33.2638 30.3339 32.0416 31.9853 31.1287 33.8088C30.2635 35.6323 29.6863 37.5789 29.4174 39.5792C29.3528 40.0821 29.4884 40.5903 29.7951 40.9941C30.1017 41.3979 30.5547 41.665 31.0565 41.7379C31.5582 41.8108 32.0685 41.6835 32.4773 41.3836C32.8861 41.0837 33.1607 40.6351 33.2418 40.1346H33.2598Z" fill="white"/>
</g>
<path opacity="0.12" d="M49.2706 65.8894C54.4044 62.214 61.1456 56.859 63.927 47.1197C66.5909 37.8003 64.9745 25.3022 53.3388 21.4824L53.0679 21.3966C64.4688 44.8756 59.8136 51.1427 49.2706 65.8894Z" fill="#E84E19"/>
<path d="M70.0901 50.3752L91.5373 52.2806C91.7044 52.2997 91.8721 52.2518 92.0038 52.1472C92.1355 52.0426 92.2202 51.89 92.2394 51.723C92.2586 51.5559 92.2106 51.3881 92.106 51.2564C92.0014 51.1248 91.8488 51.04 91.6818 51.0209L70.361 48.0318C70.0602 48.0071 69.7612 48.0983 69.5254 48.2868C69.2896 48.4753 69.1348 48.7468 69.0927 49.0457C69.0506 49.3446 69.1243 49.6484 69.2988 49.8947C69.4734 50.141 69.7354 50.3113 70.0314 50.3707L70.0901 50.3752Z" fill="white"/>
<path d="M71.6072 34.6487L91.8036 29.3614C91.9305 29.3274 92.039 29.245 92.1057 29.1318C92.1724 29.0187 92.1921 28.8839 92.1604 28.7564C92.1293 28.6342 92.0524 28.5286 91.9457 28.4614C91.839 28.3941 91.7106 28.3704 91.5869 28.3952L71.0834 32.3505C70.7762 32.4104 70.5055 32.5898 70.3306 32.8493C70.1557 33.1089 70.0911 33.4272 70.151 33.7344C70.2109 34.0416 70.3904 34.3123 70.6499 34.4872C70.9094 34.6621 71.2277 34.7267 71.5349 34.6668L71.6072 34.6487Z" fill="white"/>
<path d="M65.6562 21.4914L75.671 10.542C75.7572 10.4564 75.8058 10.34 75.8063 10.2185C75.8067 10.097 75.7588 9.98032 75.6732 9.8941C75.5876 9.80788 75.4712 9.75922 75.3497 9.75879C75.2282 9.75837 75.1115 9.80624 75.0253 9.89186L63.9947 19.8253C63.7803 20.0395 63.6564 20.3278 63.6483 20.6307C63.6403 20.9336 63.7488 21.228 63.9515 21.4533C64.1542 21.6785 64.4356 21.8174 64.7376 21.8413C65.0397 21.8652 65.3394 21.7723 65.575 21.5817C65.606 21.5554 65.6333 21.525 65.6562 21.4914Z" fill="white"/>
<path d="M53.3748 15.098L55.3885 0.960875C55.398 0.893107 55.3937 0.824116 55.376 0.75803C55.3583 0.691943 55.3274 0.630105 55.2853 0.576184C55.2432 0.522263 55.1906 0.477366 55.1308 0.444165C55.071 0.410964 55.005 0.39013 54.937 0.382916C54.8109 0.365915 54.6831 0.39619 54.578 0.467893C54.473 0.539595 54.3982 0.647653 54.3681 0.77123L51.0404 14.6555C50.9835 14.9542 51.0439 15.2633 51.209 15.5187C51.374 15.7741 51.6311 15.9562 51.9268 16.027C52.2225 16.0979 52.5341 16.0522 52.797 15.8994C53.0599 15.7465 53.2539 15.4984 53.3387 15.2063C53.3526 15.1709 53.3646 15.1347 53.3748 15.098Z" fill="white"/>
<path d="M41.4231 14.4115L38.5515 0.414338C38.5317 0.286205 38.4619 0.171166 38.3573 0.0945342C38.2527 0.017902 38.122 -0.014046 37.9938 0.00571282C37.8657 0.0254717 37.7506 0.0953291 37.674 0.199904C37.5974 0.30448 37.5654 0.435214 37.5852 0.563347L39.0887 14.7817C39.1217 15.0931 39.277 15.3786 39.5204 15.5755C39.7639 15.7723 40.0755 15.8644 40.3869 15.8315C40.6982 15.7986 40.9837 15.6433 41.1806 15.3998C41.3775 15.1564 41.4696 14.8447 41.4367 14.5334C41.4348 14.4925 41.4302 14.4518 41.4231 14.4115Z" fill="white"/>
<path d="M28.5276 19.771L16.2553 8.82613C16.1673 8.74051 16.0489 8.69336 15.9261 8.69505C15.8033 8.69674 15.6862 8.74714 15.6006 8.83516C15.515 8.92318 15.4678 9.04161 15.4695 9.16439C15.4712 9.28717 15.5216 9.40425 15.6096 9.48987L26.8976 21.4597C27.0038 21.5726 27.1312 21.6636 27.2724 21.7273C27.4137 21.791 27.5662 21.8263 27.7211 21.8312C27.876 21.836 28.0303 21.8102 28.1753 21.7554C28.3203 21.7006 28.4531 21.6177 28.566 21.5116C28.679 21.4055 28.7699 21.2781 28.8336 21.1368C28.8974 20.9955 28.9327 20.8431 28.9375 20.6882C28.9424 20.5332 28.9166 20.3789 28.8617 20.2339C28.8069 20.0889 28.7241 19.9562 28.618 19.8432C28.5773 19.8161 28.5502 19.7935 28.5276 19.771Z" fill="white"/>
<path d="M22.9561 32.3911L0.511055 24.2637C0.411493 24.2505 0.310328 24.2708 0.223619 24.3215C0.136911 24.3722 0.0696087 24.4503 0.0323086 24.5436C-0.00499344 24.6368 -0.0101261 24.7399 0.0177021 24.8364C0.0455303 24.9329 0.104692 25.0174 0.185919 25.0764L22.0846 34.5584C22.3681 34.6622 22.6807 34.6538 22.9581 34.5347C23.2356 34.4157 23.4571 34.195 23.5772 33.918C23.6972 33.6409 23.7068 33.3284 23.6039 33.0446C23.501 32.7607 23.2935 32.5269 23.0238 32.3911H22.9561Z" fill="white"/>
</svg>
