<svg width="96" height="81" viewBox="0 0 96 81" fill="none" xmlns="http://www.w3.org/2000/svg">
<path d="M89.7033 14.9271C94.2325 18.3403 97.4144 23.9166 95.3648 27.5895C93.8307 30.3046 76.0912 65.6497 67.0449 71.7658C56.4118 78.9655 13.0674 80.045 12.1827 80.0897C9.86532 80.2033 1.07472 67.2812 0.307678 58.9857C-0.366028 51.7535 3.09988 44.6066 3.33527 43.5636C3.57066 42.5205 25.4904 46.4045 25.4904 46.4045L42.3898 67.3542L89.7033 14.9271Z" fill="#3B3B4D"/>
<path d="M2.08154 43.1739C-5.58894 64.7892 10.2269 77.8534 12.7187 77.6707C41.0508 75.7592 55.2514 74.3185 61.6272 71.372C68.003 68.4256 97.7475 31.7696 93.5632 20.5115C90.2799 11.6316 69.0907 0 69.0907 0C69.0907 0 55.6288 39.9839 46.9397 40.406C38.2505 40.8281 3.68058 38.673 2.08154 43.1739Z" fill="#545466"/>
<path d="M69.7558 4.69968C75.3078 10.1055 91.0059 18.3564 90.8598 22.2322C90.3687 33.88 67.0286 64.7729 65.7623 62.5327C64.4961 60.2924 50.673 41.7087 52.4343 40.1625C57.7103 35.4831 69.7558 4.69968 69.7558 4.69968Z" fill="white"/>
<path d="M47.0975 43.186C51.509 55.3857 60.4904 63.5675 58.9725 65.5075C57.4547 67.4474 29.013 73.1333 27.1542 71.1325C25.2955 69.1317 14.7069 43.9774 15.5998 43.1291C16.4927 42.2809 47.0975 43.186 47.0975 43.186Z" fill="#3B3B4D"/>
<path d="M15.9085 52.5773C17.3005 59.1763 21.2453 63.9044 19.6301 65.1138C18.0148 66.3233 9.04561 68.1577 8.18521 67.3095C7.32482 66.4613 3.60325 56.7575 5.17793 53.1049C5.8354 51.5546 14.7599 47.1227 15.9085 52.5773Z" fill="#3B3B4D"/>
</svg>
